# xmcd
#
# Track frame offsets:
#	150
#	10540
#	21646
#	35392
#	45547
#	57920
#	72668
#	81639
#	92598
#	112818
#
# Disc length: 1622 seconds
# Revision: 0
# Processed by: cddbd v1.5.2PL0 Copyright (c) Steve Scherf et al.
# Submitted via: dBpowerAMP V12.0
#
DISCID=7e06540a
DTITLE=Preston Walden - Tennessee Banjo
DYEAR=1900
DGENRE=Bluegrass
TTITLE0=Shuckin' the Corn
TTITLE1=Somebody Touched Me
TTITLE2=Sunrise on Cedar Creek
TTITLE3=Country Line Breakdown
TTITLE4=Lonesome Road Blues
TTITLE5=Angel Band
TTITLE6=Moonshiner's Jig
TTITLE7=Two Dollar Bill
TTITLE8=In the Pines
TTITLE9=Arkansas Sunrise
EXTD=
EXTT0=
EXTT1=
EXTT2=
EXTT3=
EXTT4=
EXTT5=
EXTT6=
EXTT7=
EXTT8=
EXTT9=
PLAYORDER=
